<svg width="40" height="40" viewBox="0 0 40 40" fill="none" xmlns="http://www.w3.org/2000/svg">
<rect width="40" height="40" rx="20" fill="#FC4F24"/>
<path d="M28.8249 24.8304C29.3318 23.8 29.5844 22.6632 29.5616 21.515C29.5388 20.3669 29.2413 19.241 28.6939 18.2315C28.1464 17.222 27.3651 16.3584 26.4153 15.713C25.4655 15.0675 24.3749 14.659 23.2348 14.5218C22.8567 13.6403 22.306 12.8435 21.6151 12.1782C20.9243 11.5129 20.1073 10.9926 19.2122 10.6479C18.3172 10.3033 17.3622 10.1412 16.4036 10.1714C15.4449 10.2015 14.502 10.4232 13.6304 10.8234C12.7588 11.2236 11.976 11.7942 11.3283 12.5016C10.6806 13.209 10.1811 14.0388 9.85909 14.9423C9.53709 15.8457 9.39916 16.8045 9.45344 17.7621C9.50771 18.7196 9.75309 19.6567 10.1751 20.5179L9.48691 22.9275C9.4255 23.1431 9.42281 23.3712 9.47912 23.5881C9.53543 23.8051 9.64869 24.0031 9.80719 24.1616C9.96569 24.3201 10.1637 24.4333 10.3806 24.4896C10.5976 24.5459 10.8256 24.5433 11.0412 24.4818L13.4508 23.7936C14.1779 24.1506 14.9601 24.3824 15.7643 24.4791C16.1477 25.3773 16.71 26.1879 17.4171 26.8615C18.1241 27.5351 18.961 28.0576 19.8767 28.397C20.7924 28.7364 21.7676 28.8857 22.7429 28.8357C23.7182 28.7857 24.673 28.5374 25.5492 28.1061L27.9588 28.7943C28.1744 28.8558 28.4024 28.8584 28.6194 28.8021C28.8363 28.7458 29.0343 28.6326 29.1928 28.4741C29.3513 28.3156 29.4646 28.1176 29.5209 27.9006C29.5772 27.6837 29.5745 27.4556 29.5131 27.24L28.8249 24.8304ZM13.5281 22.3058C13.4613 22.3058 13.3948 22.3149 13.3304 22.3328L10.9577 23.0111L11.636 20.6383C11.6868 20.4576 11.6649 20.2641 11.5749 20.0993C10.914 18.886 10.7125 17.4751 11.0072 16.1253C11.302 14.7755 12.0732 13.5771 13.1797 12.7497C14.2862 11.9223 15.6538 11.5213 17.0318 11.6202C18.4099 11.7192 19.7062 12.3113 20.6831 13.2883C21.6601 14.2653 22.2523 15.5615 22.3512 16.9396C22.4501 18.3177 22.0492 19.6853 21.2218 20.7917C20.3944 21.8982 19.196 22.6695 17.8461 22.9642C16.4963 23.259 15.0855 23.0574 13.8722 22.3966C13.767 22.3377 13.6486 22.3065 13.5281 22.3058ZM27.364 24.9508L28.0423 27.3236L25.6696 26.6453C25.4888 26.5944 25.2953 26.6164 25.1305 26.7064C23.8056 27.4272 22.2506 27.5991 20.8002 27.1851C19.3499 26.7711 18.12 25.8042 17.3752 24.4926C18.3594 24.3901 19.3118 24.0853 20.1726 23.5974C21.0335 23.1094 21.7842 22.4488 22.3776 21.657C22.9711 20.8652 23.3945 19.9593 23.6213 18.9961C23.8482 18.033 23.8735 17.0333 23.6957 16.0599C24.557 16.2629 25.3598 16.6619 26.0416 17.2258C26.7234 17.7898 27.2659 18.5036 27.6268 19.3115C27.9877 20.1194 28.1572 20.9997 28.1222 21.8839C28.0873 22.768 27.8487 23.6322 27.4251 24.4091C27.3344 24.5746 27.3125 24.7692 27.364 24.9508Z" fill="#FFECE5"/>
</svg>
